<mxfile host="app.diagrams.net" modified="2022-11-08T06:05:59.427Z" agent="5.0 (Windows NT 10.0; Win64; x64) AppleWebKit/537.36 (KHTML, like Gecko) Chrome/106.0.0.0 Safari/537.36" etag="FrM__XyXEgVmUmC6A_Vw" version="20.5.1" type="github">
  <diagram id="6a731a19-8d31-9384-78a2-239565b7b9f0" name="Page-1">
    <mxGraphModel dx="1497" dy="802" grid="1" gridSize="10" guides="1" tooltips="1" connect="1" arrows="1" fold="1" page="1" pageScale="1" pageWidth="827" pageHeight="1169" background="none" math="0" shadow="0">
      <root>
        <mxCell id="0" />
        <mxCell id="1" parent="0" />
        <mxCell id="ItvdCnxJsJQjOhakiOB1-2261" value="Spine" style="ellipse;whiteSpace=wrap;html=1;aspect=fixed;" vertex="1" parent="1">
          <mxGeometry x="433" y="380" width="100" height="100" as="geometry" />
        </mxCell>
        <mxCell id="ItvdCnxJsJQjOhakiOB1-2262" value="Spine" style="ellipse;whiteSpace=wrap;html=1;aspect=fixed;" vertex="1" parent="1">
          <mxGeometry x="950" y="380" width="100" height="100" as="geometry" />
        </mxCell>
        <mxCell id="ItvdCnxJsJQjOhakiOB1-2263" value="Leaf" style="ellipse;whiteSpace=wrap;html=1;aspect=fixed;" vertex="1" parent="1">
          <mxGeometry x="330" y="650" width="80" height="80" as="geometry" />
        </mxCell>
        <mxCell id="ItvdCnxJsJQjOhakiOB1-2264" value="Leaf" style="ellipse;whiteSpace=wrap;html=1;aspect=fixed;" vertex="1" parent="1">
          <mxGeometry x="580" y="650" width="80" height="80" as="geometry" />
        </mxCell>
        <mxCell id="ItvdCnxJsJQjOhakiOB1-2265" value="Leaf" style="ellipse;whiteSpace=wrap;html=1;aspect=fixed;" vertex="1" parent="1">
          <mxGeometry x="830" y="650" width="80" height="80" as="geometry" />
        </mxCell>
        <mxCell id="ItvdCnxJsJQjOhakiOB1-2266" value="Leaf" style="ellipse;whiteSpace=wrap;html=1;aspect=fixed;" vertex="1" parent="1">
          <mxGeometry x="1080" y="650" width="80" height="80" as="geometry" />
        </mxCell>
        <mxCell id="ItvdCnxJsJQjOhakiOB1-2267" value="Border&lt;br&gt;Leaf" style="ellipse;whiteSpace=wrap;html=1;aspect=fixed;" vertex="1" parent="1">
          <mxGeometry x="1290" y="650" width="96" height="96" as="geometry" />
        </mxCell>
        <mxCell id="ItvdCnxJsJQjOhakiOB1-2268" value="Border&lt;br&gt;Leaf" style="ellipse;whiteSpace=wrap;html=1;aspect=fixed;" vertex="1" parent="1">
          <mxGeometry x="1520" y="650" width="96" height="96" as="geometry" />
        </mxCell>
        <mxCell id="ItvdCnxJsJQjOhakiOB1-2269" value="" style="whiteSpace=wrap;html=1;aspect=fixed;" vertex="1" parent="1">
          <mxGeometry x="295" y="870" width="150" height="150" as="geometry" />
        </mxCell>
        <mxCell id="ItvdCnxJsJQjOhakiOB1-2270" value="" style="whiteSpace=wrap;html=1;aspect=fixed;" vertex="1" parent="1">
          <mxGeometry x="545" y="870" width="150" height="150" as="geometry" />
        </mxCell>
        <mxCell id="ItvdCnxJsJQjOhakiOB1-2271" value="" style="whiteSpace=wrap;html=1;aspect=fixed;" vertex="1" parent="1">
          <mxGeometry x="795" y="870" width="150" height="150" as="geometry" />
        </mxCell>
        <mxCell id="ItvdCnxJsJQjOhakiOB1-2272" value="" style="whiteSpace=wrap;html=1;aspect=fixed;" vertex="1" parent="1">
          <mxGeometry x="1045" y="870" width="150" height="150" as="geometry" />
        </mxCell>
        <mxCell id="ItvdCnxJsJQjOhakiOB1-2273" value="" style="endArrow=none;html=1;rounded=0;entryX=0.5;entryY=1;entryDx=0;entryDy=0;exitX=0.5;exitY=0;exitDx=0;exitDy=0;fillColor=#dae8fc;strokeColor=#6c8ebf;strokeWidth=3;" edge="1" parent="1" source="ItvdCnxJsJQjOhakiOB1-2263" target="ItvdCnxJsJQjOhakiOB1-2261">
          <mxGeometry width="50" height="50" relative="1" as="geometry">
            <mxPoint x="990" y="740" as="sourcePoint" />
            <mxPoint x="1040" y="690" as="targetPoint" />
          </mxGeometry>
        </mxCell>
        <mxCell id="ItvdCnxJsJQjOhakiOB1-2274" value="" style="endArrow=none;html=1;rounded=0;entryX=0.5;entryY=1;entryDx=0;entryDy=0;exitX=0.5;exitY=0;exitDx=0;exitDy=0;fillColor=#dae8fc;strokeColor=#6c8ebf;fontStyle=1;strokeWidth=3;" edge="1" parent="1" source="ItvdCnxJsJQjOhakiOB1-2264" target="ItvdCnxJsJQjOhakiOB1-2261">
          <mxGeometry width="50" height="50" relative="1" as="geometry">
            <mxPoint x="990" y="740" as="sourcePoint" />
            <mxPoint x="1040" y="690" as="targetPoint" />
          </mxGeometry>
        </mxCell>
        <mxCell id="ItvdCnxJsJQjOhakiOB1-2275" value="" style="endArrow=none;html=1;rounded=0;exitX=0.5;exitY=0;exitDx=0;exitDy=0;fillColor=#dae8fc;strokeColor=#6c8ebf;strokeWidth=3;" edge="1" parent="1" source="ItvdCnxJsJQjOhakiOB1-2265">
          <mxGeometry width="50" height="50" relative="1" as="geometry">
            <mxPoint x="990" y="740" as="sourcePoint" />
            <mxPoint x="480" y="480" as="targetPoint" />
          </mxGeometry>
        </mxCell>
        <mxCell id="ItvdCnxJsJQjOhakiOB1-2277" value="" style="endArrow=none;html=1;rounded=0;strokeWidth=3;entryX=0.5;entryY=1;entryDx=0;entryDy=0;exitX=0.5;exitY=0;exitDx=0;exitDy=0;fillColor=#dae8fc;strokeColor=#6c8ebf;" edge="1" parent="1" source="ItvdCnxJsJQjOhakiOB1-2263" target="ItvdCnxJsJQjOhakiOB1-2262">
          <mxGeometry width="50" height="50" relative="1" as="geometry">
            <mxPoint x="990" y="740" as="sourcePoint" />
            <mxPoint x="1040" y="690" as="targetPoint" />
          </mxGeometry>
        </mxCell>
        <mxCell id="ItvdCnxJsJQjOhakiOB1-2278" value="" style="endArrow=none;html=1;rounded=0;strokeWidth=3;entryX=0.5;entryY=1;entryDx=0;entryDy=0;exitX=0.5;exitY=0;exitDx=0;exitDy=0;fillColor=#dae8fc;strokeColor=#6c8ebf;" edge="1" parent="1" source="ItvdCnxJsJQjOhakiOB1-2266" target="ItvdCnxJsJQjOhakiOB1-2262">
          <mxGeometry width="50" height="50" relative="1" as="geometry">
            <mxPoint x="990" y="740" as="sourcePoint" />
            <mxPoint x="1040" y="690" as="targetPoint" />
          </mxGeometry>
        </mxCell>
        <mxCell id="ItvdCnxJsJQjOhakiOB1-2279" value="" style="endArrow=none;html=1;rounded=0;strokeWidth=3;exitX=0.5;exitY=0;exitDx=0;exitDy=0;entryX=0.5;entryY=1;entryDx=0;entryDy=0;fillColor=#dae8fc;strokeColor=#6c8ebf;" edge="1" parent="1" source="ItvdCnxJsJQjOhakiOB1-2264" target="ItvdCnxJsJQjOhakiOB1-2262">
          <mxGeometry width="50" height="50" relative="1" as="geometry">
            <mxPoint x="990" y="740" as="sourcePoint" />
            <mxPoint x="1040" y="690" as="targetPoint" />
          </mxGeometry>
        </mxCell>
        <mxCell id="ItvdCnxJsJQjOhakiOB1-2280" value="" style="endArrow=none;html=1;rounded=0;strokeWidth=3;exitX=0.5;exitY=0;exitDx=0;exitDy=0;fillColor=#dae8fc;strokeColor=#6c8ebf;" edge="1" parent="1" source="ItvdCnxJsJQjOhakiOB1-2265">
          <mxGeometry width="50" height="50" relative="1" as="geometry">
            <mxPoint x="990" y="740" as="sourcePoint" />
            <mxPoint x="1000" y="480" as="targetPoint" />
          </mxGeometry>
        </mxCell>
        <mxCell id="ItvdCnxJsJQjOhakiOB1-2281" value="" style="endArrow=none;html=1;rounded=0;strokeWidth=3;exitX=0.5;exitY=0;exitDx=0;exitDy=0;fillColor=#dae8fc;strokeColor=#6c8ebf;" edge="1" parent="1" source="ItvdCnxJsJQjOhakiOB1-2266">
          <mxGeometry width="50" height="50" relative="1" as="geometry">
            <mxPoint x="990" y="740" as="sourcePoint" />
            <mxPoint x="480" y="480" as="targetPoint" />
          </mxGeometry>
        </mxCell>
        <mxCell id="ItvdCnxJsJQjOhakiOB1-2282" value="" style="endArrow=none;html=1;rounded=0;strokeWidth=3;exitX=0.5;exitY=0;exitDx=0;exitDy=0;fillColor=#dae8fc;strokeColor=#6c8ebf;" edge="1" parent="1" source="ItvdCnxJsJQjOhakiOB1-2267">
          <mxGeometry width="50" height="50" relative="1" as="geometry">
            <mxPoint x="990" y="740" as="sourcePoint" />
            <mxPoint x="480" y="480" as="targetPoint" />
          </mxGeometry>
        </mxCell>
        <mxCell id="ItvdCnxJsJQjOhakiOB1-2283" value="" style="endArrow=none;html=1;rounded=0;strokeWidth=3;fillColor=#dae8fc;strokeColor=#6c8ebf;" edge="1" parent="1">
          <mxGeometry width="50" height="50" relative="1" as="geometry">
            <mxPoint x="1330" y="650" as="sourcePoint" />
            <mxPoint x="1000" y="480" as="targetPoint" />
          </mxGeometry>
        </mxCell>
        <mxCell id="ItvdCnxJsJQjOhakiOB1-2284" value="" style="endArrow=none;html=1;rounded=0;strokeWidth=3;exitX=0.5;exitY=0;exitDx=0;exitDy=0;fillColor=#dae8fc;strokeColor=#6c8ebf;" edge="1" parent="1" source="ItvdCnxJsJQjOhakiOB1-2268">
          <mxGeometry width="50" height="50" relative="1" as="geometry">
            <mxPoint x="1340" y="830" as="sourcePoint" />
            <mxPoint x="1000" y="480" as="targetPoint" />
          </mxGeometry>
        </mxCell>
        <mxCell id="ItvdCnxJsJQjOhakiOB1-2285" value="" style="endArrow=none;html=1;rounded=0;strokeWidth=3;exitX=0.5;exitY=0;exitDx=0;exitDy=0;fillColor=#dae8fc;strokeColor=#6c8ebf;" edge="1" parent="1" source="ItvdCnxJsJQjOhakiOB1-2268">
          <mxGeometry width="50" height="50" relative="1" as="geometry">
            <mxPoint x="380" y="1050" as="sourcePoint" />
            <mxPoint x="490" y="480" as="targetPoint" />
          </mxGeometry>
        </mxCell>
        <mxCell id="ItvdCnxJsJQjOhakiOB1-2286" value="" style="endArrow=none;html=1;rounded=0;strokeWidth=3;entryX=0.5;entryY=1;entryDx=0;entryDy=0;exitX=0.25;exitY=0;exitDx=0;exitDy=0;fillColor=#0050ef;strokeColor=#001DBC;" edge="1" parent="1" source="ItvdCnxJsJQjOhakiOB1-2269" target="ItvdCnxJsJQjOhakiOB1-2263">
          <mxGeometry width="50" height="50" relative="1" as="geometry">
            <mxPoint x="250" y="590" as="sourcePoint" />
            <mxPoint x="300" y="540" as="targetPoint" />
          </mxGeometry>
        </mxCell>
        <mxCell id="ItvdCnxJsJQjOhakiOB1-2287" value="" style="endArrow=none;html=1;rounded=0;strokeWidth=3;entryX=0.5;entryY=1;entryDx=0;entryDy=0;exitX=0.75;exitY=0;exitDx=0;exitDy=0;fillColor=#0050ef;strokeColor=#001DBC;" edge="1" parent="1" source="ItvdCnxJsJQjOhakiOB1-2270" target="ItvdCnxJsJQjOhakiOB1-2263">
          <mxGeometry width="50" height="50" relative="1" as="geometry">
            <mxPoint x="250" y="590" as="sourcePoint" />
            <mxPoint x="300" y="540" as="targetPoint" />
          </mxGeometry>
        </mxCell>
        <mxCell id="ItvdCnxJsJQjOhakiOB1-2288" value="" style="endArrow=none;html=1;rounded=0;strokeWidth=3;entryX=0.5;entryY=1;entryDx=0;entryDy=0;dashed=1;fillColor=#ffcc99;strokeColor=#36393d;" edge="1" parent="1" source="ItvdCnxJsJQjOhakiOB1-2269" target="ItvdCnxJsJQjOhakiOB1-2263">
          <mxGeometry width="50" height="50" relative="1" as="geometry">
            <mxPoint x="250" y="590" as="sourcePoint" />
            <mxPoint x="300" y="540" as="targetPoint" />
          </mxGeometry>
        </mxCell>
        <mxCell id="ItvdCnxJsJQjOhakiOB1-2289" value="" style="endArrow=none;html=1;rounded=0;strokeWidth=3;entryX=0.5;entryY=1;entryDx=0;entryDy=0;exitX=0.25;exitY=0;exitDx=0;exitDy=0;fillColor=#0050ef;strokeColor=#001DBC;" edge="1" parent="1" source="ItvdCnxJsJQjOhakiOB1-2269" target="ItvdCnxJsJQjOhakiOB1-2264">
          <mxGeometry width="50" height="50" relative="1" as="geometry">
            <mxPoint x="250" y="590" as="sourcePoint" />
            <mxPoint x="300" y="540" as="targetPoint" />
          </mxGeometry>
        </mxCell>
        <mxCell id="ItvdCnxJsJQjOhakiOB1-2290" value="" style="endArrow=none;html=1;rounded=0;dashed=1;strokeWidth=3;entryX=0.5;entryY=1;entryDx=0;entryDy=0;exitX=0.5;exitY=0;exitDx=0;exitDy=0;fillColor=#ffcc99;strokeColor=#36393d;" edge="1" parent="1" source="ItvdCnxJsJQjOhakiOB1-2270" target="ItvdCnxJsJQjOhakiOB1-2264">
          <mxGeometry width="50" height="50" relative="1" as="geometry">
            <mxPoint x="250" y="590" as="sourcePoint" />
            <mxPoint x="300" y="540" as="targetPoint" />
          </mxGeometry>
        </mxCell>
        <mxCell id="ItvdCnxJsJQjOhakiOB1-2291" value="" style="endArrow=none;html=1;rounded=0;strokeWidth=3;entryX=0.5;entryY=1;entryDx=0;entryDy=0;fillColor=#0050ef;strokeColor=#001DBC;" edge="1" parent="1" target="ItvdCnxJsJQjOhakiOB1-2264">
          <mxGeometry width="50" height="50" relative="1" as="geometry">
            <mxPoint x="650" y="870" as="sourcePoint" />
            <mxPoint x="300" y="540" as="targetPoint" />
          </mxGeometry>
        </mxCell>
        <mxCell id="ItvdCnxJsJQjOhakiOB1-2292" value="" style="endArrow=none;dashed=1;html=1;rounded=0;strokeWidth=3;fillColor=#ffcc99;strokeColor=#36393d;" edge="1" parent="1">
          <mxGeometry width="50" height="50" relative="1" as="geometry">
            <mxPoint x="590" y="870" as="sourcePoint" />
            <mxPoint x="370" y="730" as="targetPoint" />
          </mxGeometry>
        </mxCell>
        <mxCell id="ItvdCnxJsJQjOhakiOB1-2293" value="" style="endArrow=none;dashed=1;html=1;rounded=0;strokeWidth=3;entryX=0.5;entryY=1;entryDx=0;entryDy=0;exitX=0.5;exitY=0;exitDx=0;exitDy=0;fillColor=#ffcc99;strokeColor=#36393d;" edge="1" parent="1" source="ItvdCnxJsJQjOhakiOB1-2269" target="ItvdCnxJsJQjOhakiOB1-2264">
          <mxGeometry width="50" height="50" relative="1" as="geometry">
            <mxPoint x="250" y="590" as="sourcePoint" />
            <mxPoint x="300" y="540" as="targetPoint" />
          </mxGeometry>
        </mxCell>
        <mxCell id="ItvdCnxJsJQjOhakiOB1-2294" value="" style="endArrow=none;html=1;rounded=0;strokeWidth=3;entryX=0.5;entryY=1;entryDx=0;entryDy=0;exitX=0.25;exitY=0;exitDx=0;exitDy=0;fillColor=#0050ef;strokeColor=#001DBC;" edge="1" parent="1" source="ItvdCnxJsJQjOhakiOB1-2271" target="ItvdCnxJsJQjOhakiOB1-2265">
          <mxGeometry width="50" height="50" relative="1" as="geometry">
            <mxPoint x="1130" y="800" as="sourcePoint" />
            <mxPoint x="1180" y="750" as="targetPoint" />
          </mxGeometry>
        </mxCell>
        <mxCell id="ItvdCnxJsJQjOhakiOB1-2295" value="" style="endArrow=none;html=1;rounded=0;strokeWidth=3;entryX=0.5;entryY=1;entryDx=0;entryDy=0;exitX=0.75;exitY=0;exitDx=0;exitDy=0;fillColor=#0050ef;strokeColor=#001DBC;" edge="1" parent="1" source="ItvdCnxJsJQjOhakiOB1-2272" target="ItvdCnxJsJQjOhakiOB1-2266">
          <mxGeometry width="50" height="50" relative="1" as="geometry">
            <mxPoint x="1130" y="800" as="sourcePoint" />
            <mxPoint x="1180" y="750" as="targetPoint" />
          </mxGeometry>
        </mxCell>
        <mxCell id="ItvdCnxJsJQjOhakiOB1-2296" value="" style="endArrow=none;html=1;rounded=0;strokeWidth=3;entryX=0.5;entryY=1;entryDx=0;entryDy=0;exitX=0.75;exitY=0;exitDx=0;exitDy=0;fillColor=#0050ef;strokeColor=#001DBC;" edge="1" parent="1" source="ItvdCnxJsJQjOhakiOB1-2272" target="ItvdCnxJsJQjOhakiOB1-2265">
          <mxGeometry width="50" height="50" relative="1" as="geometry">
            <mxPoint x="1130" y="800" as="sourcePoint" />
            <mxPoint x="1180" y="750" as="targetPoint" />
          </mxGeometry>
        </mxCell>
        <mxCell id="ItvdCnxJsJQjOhakiOB1-2297" value="" style="endArrow=none;html=1;rounded=0;strokeWidth=3;entryX=0.5;entryY=1;entryDx=0;entryDy=0;fillColor=#0050ef;strokeColor=#001DBC;" edge="1" parent="1" target="ItvdCnxJsJQjOhakiOB1-2266">
          <mxGeometry width="50" height="50" relative="1" as="geometry">
            <mxPoint x="830" y="870" as="sourcePoint" />
            <mxPoint x="1180" y="750" as="targetPoint" />
          </mxGeometry>
        </mxCell>
        <mxCell id="ItvdCnxJsJQjOhakiOB1-2298" value="" style="endArrow=none;dashed=1;html=1;rounded=0;strokeWidth=3;entryX=0.5;entryY=1;entryDx=0;entryDy=0;exitX=0.25;exitY=0;exitDx=0;exitDy=0;" edge="1" parent="1" source="ItvdCnxJsJQjOhakiOB1-2272" target="ItvdCnxJsJQjOhakiOB1-2265">
          <mxGeometry width="50" height="50" relative="1" as="geometry">
            <mxPoint x="1130" y="800" as="sourcePoint" />
            <mxPoint x="1180" y="750" as="targetPoint" />
          </mxGeometry>
        </mxCell>
        <mxCell id="ItvdCnxJsJQjOhakiOB1-2299" value="" style="endArrow=none;dashed=1;html=1;rounded=0;strokeWidth=3;exitX=0.75;exitY=0;exitDx=0;exitDy=0;" edge="1" parent="1" source="ItvdCnxJsJQjOhakiOB1-2271">
          <mxGeometry width="50" height="50" relative="1" as="geometry">
            <mxPoint x="1130" y="800" as="sourcePoint" />
            <mxPoint x="1120" y="730" as="targetPoint" />
          </mxGeometry>
        </mxCell>
        <mxCell id="ItvdCnxJsJQjOhakiOB1-2300" value="" style="endArrow=none;dashed=1;html=1;rounded=0;strokeWidth=3;" edge="1" parent="1" source="ItvdCnxJsJQjOhakiOB1-2271">
          <mxGeometry width="50" height="50" relative="1" as="geometry">
            <mxPoint x="1130" y="800" as="sourcePoint" />
            <mxPoint x="880" y="740" as="targetPoint" />
          </mxGeometry>
        </mxCell>
        <mxCell id="ItvdCnxJsJQjOhakiOB1-2301" value="" style="endArrow=none;dashed=1;html=1;rounded=0;strokeWidth=3;exitX=0.5;exitY=0;exitDx=0;exitDy=0;" edge="1" parent="1" source="ItvdCnxJsJQjOhakiOB1-2272">
          <mxGeometry width="50" height="50" relative="1" as="geometry">
            <mxPoint x="1130" y="800" as="sourcePoint" />
            <mxPoint x="1120" y="730" as="targetPoint" />
          </mxGeometry>
        </mxCell>
        <mxCell id="ItvdCnxJsJQjOhakiOB1-2302" value="&lt;font style=&quot;font-size: 29px;&quot;&gt;CNC&lt;/font&gt;" style="rounded=1;whiteSpace=wrap;html=1;" vertex="1" parent="1">
          <mxGeometry x="20" y="250" width="160" height="100" as="geometry" />
        </mxCell>
        <mxCell id="ItvdCnxJsJQjOhakiOB1-2303" value="&lt;font style=&quot;font-size: 17px;&quot;&gt;CIDR Manager&lt;/font&gt;" style="rounded=1;whiteSpace=wrap;html=1;" vertex="1" parent="1">
          <mxGeometry x="10" y="510" width="190" height="100" as="geometry" />
        </mxCell>
        <mxCell id="ItvdCnxJsJQjOhakiOB1-2304" value="" style="endArrow=none;dashed=1;html=1;rounded=0;strokeWidth=3;" edge="1" parent="1" source="ItvdCnxJsJQjOhakiOB1-2261">
          <mxGeometry width="50" height="50" relative="1" as="geometry">
            <mxPoint x="850" y="590" as="sourcePoint" />
            <mxPoint x="180" y="300" as="targetPoint" />
          </mxGeometry>
        </mxCell>
        <mxCell id="ItvdCnxJsJQjOhakiOB1-2305" value="" style="endArrow=none;dashed=1;html=1;rounded=0;strokeWidth=3;entryX=1;entryY=0.5;entryDx=0;entryDy=0;exitX=0.014;exitY=0.412;exitDx=0;exitDy=0;exitPerimeter=0;fillColor=#cdeb8b;strokeColor=#36393d;" edge="1" parent="1" source="ItvdCnxJsJQjOhakiOB1-2262" target="ItvdCnxJsJQjOhakiOB1-2302">
          <mxGeometry width="50" height="50" relative="1" as="geometry">
            <mxPoint x="850" y="590" as="sourcePoint" />
            <mxPoint x="900" y="540" as="targetPoint" />
          </mxGeometry>
        </mxCell>
        <mxCell id="ItvdCnxJsJQjOhakiOB1-2306" value="" style="endArrow=none;dashed=1;html=1;rounded=0;strokeWidth=3;entryX=1;entryY=0.5;entryDx=0;entryDy=0;" edge="1" parent="1" target="ItvdCnxJsJQjOhakiOB1-2302">
          <mxGeometry width="50" height="50" relative="1" as="geometry">
            <mxPoint x="370" y="650" as="sourcePoint" />
            <mxPoint x="900" y="540" as="targetPoint" />
          </mxGeometry>
        </mxCell>
        <mxCell id="ItvdCnxJsJQjOhakiOB1-2307" value="" style="endArrow=none;dashed=1;html=1;rounded=0;strokeWidth=3;entryX=1;entryY=0.5;entryDx=0;entryDy=0;exitX=0.625;exitY=0.125;exitDx=0;exitDy=0;exitPerimeter=0;" edge="1" parent="1" source="ItvdCnxJsJQjOhakiOB1-2264" target="ItvdCnxJsJQjOhakiOB1-2302">
          <mxGeometry width="50" height="50" relative="1" as="geometry">
            <mxPoint x="750" y="700" as="sourcePoint" />
            <mxPoint x="800" y="650" as="targetPoint" />
          </mxGeometry>
        </mxCell>
        <mxCell id="ItvdCnxJsJQjOhakiOB1-2308" value="" style="endArrow=none;dashed=1;html=1;rounded=0;strokeWidth=3;entryX=1;entryY=0.5;entryDx=0;entryDy=0;" edge="1" parent="1" target="ItvdCnxJsJQjOhakiOB1-2302">
          <mxGeometry width="50" height="50" relative="1" as="geometry">
            <mxPoint x="870" y="650" as="sourcePoint" />
            <mxPoint x="800" y="540" as="targetPoint" />
          </mxGeometry>
        </mxCell>
        <mxCell id="ItvdCnxJsJQjOhakiOB1-2309" value="" style="endArrow=none;dashed=1;html=1;rounded=0;strokeWidth=3;exitX=0.5;exitY=0;exitDx=0;exitDy=0;" edge="1" parent="1" source="ItvdCnxJsJQjOhakiOB1-2266">
          <mxGeometry width="50" height="50" relative="1" as="geometry">
            <mxPoint x="750" y="590" as="sourcePoint" />
            <mxPoint x="180" y="300" as="targetPoint" />
          </mxGeometry>
        </mxCell>
        <mxCell id="ItvdCnxJsJQjOhakiOB1-2310" value="" style="endArrow=none;dashed=1;html=1;rounded=0;strokeWidth=3;exitX=0.5;exitY=0;exitDx=0;exitDy=0;fillColor=#cdeb8b;strokeColor=#36393d;" edge="1" parent="1" source="ItvdCnxJsJQjOhakiOB1-2267">
          <mxGeometry width="50" height="50" relative="1" as="geometry">
            <mxPoint x="750" y="590" as="sourcePoint" />
            <mxPoint x="180" y="300" as="targetPoint" />
          </mxGeometry>
        </mxCell>
        <mxCell id="ItvdCnxJsJQjOhakiOB1-2311" value="" style="endArrow=none;dashed=1;html=1;rounded=0;strokeWidth=3;entryX=1;entryY=0.5;entryDx=0;entryDy=0;fillColor=#cdeb8b;strokeColor=#36393d;" edge="1" parent="1" target="ItvdCnxJsJQjOhakiOB1-2302">
          <mxGeometry width="50" height="50" relative="1" as="geometry">
            <mxPoint x="1508.421052631579" y="640" as="sourcePoint" />
            <mxPoint x="800" y="540" as="targetPoint" />
          </mxGeometry>
        </mxCell>
        <mxCell id="ItvdCnxJsJQjOhakiOB1-2312" value="" style="endArrow=none;html=1;rounded=0;strokeWidth=3;entryX=0.5;entryY=1;entryDx=0;entryDy=0;dashed=1;" edge="1" parent="1" source="ItvdCnxJsJQjOhakiOB1-2303" target="ItvdCnxJsJQjOhakiOB1-2302">
          <mxGeometry width="50" height="50" relative="1" as="geometry">
            <mxPoint x="480" y="590" as="sourcePoint" />
            <mxPoint x="530" y="540" as="targetPoint" />
          </mxGeometry>
        </mxCell>
        <mxCell id="ItvdCnxJsJQjOhakiOB1-2313" value="" style="endArrow=none;html=1;rounded=0;strokeWidth=3;entryX=0.5;entryY=1;entryDx=0;entryDy=0;dashed=1;fillColor=#cdeb8b;strokeColor=#33FF33;" edge="1" parent="1">
          <mxGeometry width="50" height="50" relative="1" as="geometry">
            <mxPoint x="103.80952380952385" y="510" as="sourcePoint" />
            <mxPoint x="100" y="350.0000000000002" as="targetPoint" />
          </mxGeometry>
        </mxCell>
        <mxCell id="ItvdCnxJsJQjOhakiOB1-2314" value="" style="endArrow=none;dashed=1;html=1;rounded=0;strokeWidth=3;entryX=1;entryY=0.5;entryDx=0;entryDy=0;fillColor=#cdeb8b;strokeColor=#33FF33;" edge="1" parent="1">
          <mxGeometry width="50" height="50" relative="1" as="geometry">
            <mxPoint x="370" y="650" as="sourcePoint" />
            <mxPoint x="180" y="300.0000000000002" as="targetPoint" />
          </mxGeometry>
        </mxCell>
        <mxCell id="ItvdCnxJsJQjOhakiOB1-2315" value="" style="endArrow=none;dashed=1;html=1;rounded=0;strokeWidth=3;entryX=1;entryY=0.5;entryDx=0;entryDy=0;exitX=0.625;exitY=0.125;exitDx=0;exitDy=0;exitPerimeter=0;fillColor=#cdeb8b;strokeColor=#33FF33;" edge="1" parent="1">
          <mxGeometry width="50" height="50" relative="1" as="geometry">
            <mxPoint x="630" y="660" as="sourcePoint" />
            <mxPoint x="180" y="300.0000000000002" as="targetPoint" />
          </mxGeometry>
        </mxCell>
        <mxCell id="ItvdCnxJsJQjOhakiOB1-2316" value="" style="endArrow=none;dashed=1;html=1;rounded=0;strokeWidth=3;entryX=1;entryY=0.5;entryDx=0;entryDy=0;fillColor=#cdeb8b;strokeColor=#36393d;" edge="1" parent="1">
          <mxGeometry width="50" height="50" relative="1" as="geometry">
            <mxPoint x="870" y="650" as="sourcePoint" />
            <mxPoint x="180" y="300.0000000000002" as="targetPoint" />
          </mxGeometry>
        </mxCell>
        <mxCell id="ItvdCnxJsJQjOhakiOB1-2317" value="" style="endArrow=none;dashed=1;html=1;rounded=0;strokeWidth=3;exitX=0.5;exitY=0;exitDx=0;exitDy=0;fillColor=#cdeb8b;strokeColor=#36393d;" edge="1" parent="1">
          <mxGeometry width="50" height="50" relative="1" as="geometry">
            <mxPoint x="1120" y="650" as="sourcePoint" />
            <mxPoint x="180" y="300" as="targetPoint" />
          </mxGeometry>
        </mxCell>
        <mxCell id="ItvdCnxJsJQjOhakiOB1-2318" value="" style="endArrow=none;dashed=1;html=1;rounded=0;strokeWidth=3;entryX=1;entryY=0.5;entryDx=0;entryDy=0;exitX=0.014;exitY=0.412;exitDx=0;exitDy=0;exitPerimeter=0;fillColor=#cdeb8b;strokeColor=#33FF33;" edge="1" parent="1">
          <mxGeometry width="50" height="50" relative="1" as="geometry">
            <mxPoint x="951.4000000000001" y="421.20000000000005" as="sourcePoint" />
            <mxPoint x="180" y="300" as="targetPoint" />
          </mxGeometry>
        </mxCell>
        <mxCell id="ItvdCnxJsJQjOhakiOB1-2319" value="" style="endArrow=none;dashed=1;html=1;rounded=0;strokeWidth=3;entryX=1;entryY=0.5;entryDx=0;entryDy=0;fillColor=#cdeb8b;strokeColor=#33FF33;" edge="1" parent="1">
          <mxGeometry width="50" height="50" relative="1" as="geometry">
            <mxPoint x="1508.4210526315792" y="640.0000000000001" as="sourcePoint" />
            <mxPoint x="180" y="300" as="targetPoint" />
          </mxGeometry>
        </mxCell>
        <mxCell id="ItvdCnxJsJQjOhakiOB1-2320" value="" style="endArrow=none;dashed=1;html=1;rounded=0;strokeWidth=3;exitX=0.5;exitY=0;exitDx=0;exitDy=0;fillColor=#cdeb8b;strokeColor=#33FF33;" edge="1" parent="1">
          <mxGeometry width="50" height="50" relative="1" as="geometry">
            <mxPoint x="1338.0000000000002" y="650.0000000000001" as="sourcePoint" />
            <mxPoint x="180" y="300" as="targetPoint" />
          </mxGeometry>
        </mxCell>
        <mxCell id="ItvdCnxJsJQjOhakiOB1-2321" value="" style="endArrow=none;dashed=1;html=1;rounded=0;strokeWidth=3;exitX=0.5;exitY=0;exitDx=0;exitDy=0;fillColor=#cdeb8b;strokeColor=#33FF33;" edge="1" parent="1">
          <mxGeometry width="50" height="50" relative="1" as="geometry">
            <mxPoint x="1120.0000000000002" y="650.0000000000001" as="sourcePoint" />
            <mxPoint x="180" y="300" as="targetPoint" />
          </mxGeometry>
        </mxCell>
        <mxCell id="ItvdCnxJsJQjOhakiOB1-2322" value="" style="endArrow=none;dashed=1;html=1;rounded=0;strokeWidth=3;fillColor=#cdeb8b;strokeColor=#33FF33;" edge="1" parent="1">
          <mxGeometry width="50" height="50" relative="1" as="geometry">
            <mxPoint x="437.04550324361935" y="410.29760857490055" as="sourcePoint" />
            <mxPoint x="180" y="300" as="targetPoint" />
          </mxGeometry>
        </mxCell>
        <mxCell id="ItvdCnxJsJQjOhakiOB1-2323" value="" style="endArrow=none;dashed=1;html=1;rounded=0;strokeWidth=3;entryX=1;entryY=0.5;entryDx=0;entryDy=0;fillColor=#cdeb8b;strokeColor=#33FF33;" edge="1" parent="1">
          <mxGeometry width="50" height="50" relative="1" as="geometry">
            <mxPoint x="870" y="650.0000000000001" as="sourcePoint" />
            <mxPoint x="180" y="300.0000000000002" as="targetPoint" />
          </mxGeometry>
        </mxCell>
        <mxCell id="ItvdCnxJsJQjOhakiOB1-2324" value="Calico" style="rounded=0;whiteSpace=wrap;html=1;fontSize=17;" vertex="1" parent="1">
          <mxGeometry x="295" y="870" width="120" height="60" as="geometry" />
        </mxCell>
        <mxCell id="ItvdCnxJsJQjOhakiOB1-2325" value="Calico" style="rounded=0;whiteSpace=wrap;html=1;fontSize=17;" vertex="1" parent="1">
          <mxGeometry x="545" y="870" width="120" height="60" as="geometry" />
        </mxCell>
        <mxCell id="ItvdCnxJsJQjOhakiOB1-2326" value="Calico" style="rounded=0;whiteSpace=wrap;html=1;fontSize=17;" vertex="1" parent="1">
          <mxGeometry x="795" y="870" width="120" height="60" as="geometry" />
        </mxCell>
        <mxCell id="ItvdCnxJsJQjOhakiOB1-2327" value="Calico" style="rounded=0;whiteSpace=wrap;html=1;fontSize=17;" vertex="1" parent="1">
          <mxGeometry x="1045" y="870" width="120" height="60" as="geometry" />
        </mxCell>
      </root>
    </mxGraphModel>
  </diagram>
</mxfile>
